<svg width="1440" height="1024" viewBox="0 0 1440 1024" fill="none" xmlns="http://www.w3.org/2000/svg">
<g id="Desktop - 8">
<g clip-path="url(#clip0)">
<rect width="1440" height="1024" fill="#184660" fill-opacity="0.8"/>
<g id="Rectangle 3">
<path d="M57.8506 -19L207.609 -10.4926L149.759 1007.87L-6.4224e-06 999.358L57.8506 -19Z" fill="url(#paint0_linear)" fill-opacity="0.36"/>
<path d="M142.714 -14.1791L292.472 -5.67168L234.622 1012.69L84.8632 1004.18L142.714 -14.1791Z" fill="url(#paint1_linear)" fill-opacity="0.36"/>
</g>
<g id="MillOnly">
<g id="Podest">
<g id="Basket">
<mask id="mask0" mask-type="alpha" maskUnits="userSpaceOnUse" x="688" y="602" width="422" height="298">
<ellipse id="Ellipse 8" cx="899.261" cy="750.501" rx="210.239" ry="148.442" transform="rotate(-179.984 899.261 750.501)" fill="#C4C4C4"/>
</mask>
<g mask="url(#mask0)">
<rect id="Rectangle 15" x="1151.53" y="804.262" width="462.526" height="167.392" transform="rotate(-179.984 1151.53 804.262)" fill="#C4C4C4"/>
</g>
</g>
<rect id="Rectangle 37" x="633" y="786.96" width="531.564" height="111.908" rx="25" fill="#C4C4C4"/>
</g>
<g id="Mill">
<mask id="mask1" mask-type="alpha" maskUnits="userSpaceOnUse" x="467" y="-6" width="865" height="867">
<g id="MillMasc">
<rect id="Rectangle 38" x="524.914" y="209.364" width="239.483" height="833.096" transform="rotate(-43.7368 524.914 209.364)" fill="#1B1A1A"/>
<g id="Rectangle 39">
<rect x="515.286" y="628.296" width="239.483" height="833.096" transform="rotate(-101.554 515.286 628.296)" fill="#1B1A1A"/>
<rect x="515.286" y="628.296" width="239.483" height="833.096" transform="rotate(-101.554 515.286 628.296)" fill="#1B1A1A"/>
<rect x="515.286" y="628.296" width="239.483" height="833.096" transform="rotate(-101.554 515.286 628.296)" fill="#1B1A1A"/>
<rect x="515.286" y="628.296" width="239.483" height="833.096" transform="rotate(-101.554 515.286 628.296)" fill="#1B1A1A"/>
</g>
<g id="Rectangle 40">
<rect x="894.358" y="860.934" width="239.483" height="833.096" transform="rotate(-163.294 894.358 860.934)" fill="#1B1A1A"/>
<rect x="894.358" y="860.934" width="239.483" height="833.096" transform="rotate(-163.294 894.358 860.934)" fill="#1B1A1A"/>
<rect x="894.358" y="860.934" width="239.483" height="833.096" transform="rotate(-163.294 894.358 860.934)" fill="#1B1A1A"/>
<rect x="894.358" y="860.934" width="239.483" height="833.096" transform="rotate(-163.294 894.358 860.934)" fill="#1B1A1A"/>
</g>
</g>
</mask>
<g mask="url(#mask1)">
<circle id="Ellipse 11" cx="899.405" cy="427.557" r="445.846" fill="url(#paint2_radial)"/>
</g>
</g>
</g>
</g>
</g>
<defs>
<linearGradient id="paint0_linear" x1="175.161" y1="-12.3358" x2="117.311" y2="1006.02" gradientUnits="userSpaceOnUse">
<stop stop-color="#818387"/>
<stop offset="1" stop-color="#818387" stop-opacity="0"/>
</linearGradient>
<linearGradient id="paint1_linear" x1="175.161" y1="-12.3358" x2="117.311" y2="1006.02" gradientUnits="userSpaceOnUse">
<stop stop-color="#818387"/>
<stop offset="1" stop-color="#818387" stop-opacity="0"/>
</linearGradient>
<radialGradient id="paint2_radial" cx="0" cy="0" r="1" gradientUnits="userSpaceOnUse" gradientTransform="translate(899.405 427.557) rotate(90) scale(445.846)">
<stop offset="0.0104167" stop-color="#41667A" stop-opacity="0.4"/>
<stop offset="0.0572917" stop-color="#E5E4E4"/>
<stop offset="0.161458" stop-color="#E0BABA"/>
<stop offset="0.34375" stop-color="#DD3A3A"/>
<stop offset="0.479167" stop-color="#D85656" stop-opacity="0.793651"/>
<stop offset="0.734286" stop-color="#DC4F4F"/>
<stop offset="0.942708" stop-color="#C4C4C4" stop-opacity="0.74"/>
</radialGradient>
<clipPath id="clip0">
<rect width="1440" height="1024" fill="white"/>
</clipPath>
</defs>
</svg>
